<svg id="Layer_1" enable-background="new 0 0 512.012 512.012" height="512" viewBox="0 0 512.012 512.012" width="512" xmlns="http://www.w3.org/2000/svg"><g><g clip-rule="evenodd" fill-rule="evenodd"><path d="m357.22 212.807c12.103 0 22.006-9.92 22.006-22.043 0-12.124-9.903-22.043-22.006-22.043h-4.225c0-22.116-6.352-27.029-17.785-33.796-20.974-12.414-29.366-33.929-33.794-55.337-25.334 31.628-72.66 55.155-119.444 61.174-14.113 1.816-22.954 11.956-22.954 27.958h-4.224c-12.104 0-22.007 9.919-22.007 22.043s9.903 22.043 22.007 22.043h4.224c.001 53.344 61.72 96.988 96.989 96.988s96.988-43.645 96.989-96.988h4.224z" fill="#ffdcd5"/><path d="m287.573 15.393c-10.354-3.7-21.249-5.383-31.567-5.383-72.741 0-132.258 59.517-132.258 132.258v169.837 74.763c26.058-12.056 64.351-22.388 92.257-31.78v-58.106c-17.691-10.216-34.981-25.906-45.791-44.727-6.931-12.068-11.198-25.423-11.198-39.448h-4.224c-12.104 0-22.007-9.919-22.007-22.043s9.903-22.043 22.007-22.043h4.224c0-16.003 8.841-26.143 22.954-27.958 46.784-6.019 94.111-29.547 119.444-61.174 4.028-9.09 18.981-41.804 18.981-41.804-8.905-10.705-20.479-17.981-32.822-22.392z" fill="#ffc144"/><path d="m388.264 386.868v-1.929-242.671c0-50.124-26.308-93.348-67.867-104.484 0 0-14.953 32.714-18.981 41.804 4.428 21.408 12.821 42.923 33.794 55.337 11.433 6.767 17.785 11.68 17.785 33.796h4.225c12.102 0 22.006 9.919 22.006 22.043 0 12.123-9.903 22.043-22.006 22.043h-4.225c0 14.025-4.267 27.381-11.198 39.449-10.81 18.821-28.1 34.51-45.791 44.727v58.106c27.907 9.391 66.2 19.723 92.258 31.779z" fill="#ffc144"/><path d="m328.201 38.067c-7.811-7.81-20.474-7.81-28.285 0-7.81 7.811-7.81 20.474 0 28.285 7.811 7.81 20.474 7.81 28.285 0 7.811-7.811 7.811-20.475 0-28.285zm-6.061-22.223c7.778-7.778 20.506-7.778 28.284 0s7.778 20.506 0 28.284l-8.081 8.081 8.081 8.081c7.778 7.778 7.778 20.506 0 28.284s-20.506 7.778-28.284 0l-8.081-8.081-8.081 8.081c-7.778 7.778-20.506 7.778-28.284 0s-7.778-20.506 0-28.284l8.081-8.081-8.081-8.081c-7.778-7.778-7.778-20.506 0-28.284s20.506-7.778 28.284 0l8.081 8.081z" fill="#faf7f6"/><circle cx="314.059" cy="52.209" fill="#ff5d7d" r="20"/><path d="m189.972 363.849c16.208 19.8 40.445 31.282 66.033 31.282s49.826-11.482 66.033-31.282l-26.033-8.761v-58.107c-14.107 8.147-28.468 12.813-40.001 12.813s-25.894-4.667-40-12.813v58.106z" fill="#ffdcd5"/><path d="m256.006 395.131c-25.588 0-49.825-11.482-66.033-31.282l-39.643 13.337c23.018 36.094 62.867 57.944 105.676 57.944s82.658-21.85 105.674-57.941l-39.641-13.341c-16.208 19.801-40.445 31.283-66.033 31.283z" fill="#ff9eb1"/><path d="m139.309 500.212c-.876-6.096-.85-12.434.198-18.519l-63.5-17.014v37.333h63.302z" fill="#ffdcd5"/><path d="m146.01 464.404c-3.309 5.152-5.436 11.089-6.503 17.289-1.047 6.085-1.074 12.422-.198 18.519v1.8h233.393v-1.8c.876-6.096.85-12.434-.198-18.519-1.067-6.199-3.193-12.136-6.503-17.289v-17.9c22.379-5.996 41.905-11.229 64.282-17.224-9.026-23.124-28.257-38.512-54.279-47.269l-14.323-4.824c-23.018 36.094-62.867 57.944-105.676 57.944s-82.658-21.85-105.674-57.941l-14.325 4.821c-26.021 8.757-45.253 24.145-54.281 47.269 22.378 5.995 41.905 11.228 64.284 17.224v17.9z" fill="#ff5d7d"/><path d="m372.505 481.693c1.047 6.085 1.074 12.422.198 18.519v1.8h63.302v-37.333z" fill="#ffdcd5"/><g fill="#ff9eb1"><path d="m372.505 481.693 63.5-17.014c7.373-1.976 7.1-11.786 5.433-20.741-1.606-8.626-4.345-16.481-11.154-14.657-22.377 5.995-41.903 11.228-64.282 17.224v17.9c3.309 5.152 5.436 11.089 6.503 17.288z"/><path d="m146.01 464.404v-17.9c-22.379-5.996-41.905-11.229-64.284-17.224-6.807-1.824-9.546 6.031-11.152 14.658-1.667 8.954-1.94 18.765 5.433 20.741l63.5 17.014c1.067-6.199 3.193-12.136 6.503-17.289z"/></g></g><g><path d="m278.508 203.161c4.785 2.762 10.9 1.122 13.66-3.66 1.568-2.914 6.111-2.914 7.679 0 7.111 11.252 23.503 1.691 17.32-10-4.35-7.535-12.458-12.217-21.159-12.217-8.702 0-16.81 4.682-21.16 12.217-2.762 4.783-1.123 10.9 3.66 13.66z"/><path d="m198.505 203.161c4.784 2.762 10.899 1.122 13.66-3.66 1.568-2.914 6.112-2.914 7.68 0 7.111 11.252 23.503 1.691 17.32-10-9.189-16.186-33.136-16.181-42.32 0-2.762 4.783-1.123 10.9 3.66 13.66z"/><path d="m233.935 239.155c11.621 12.107 32.52 12.106 44.141 0 3.905-3.905 3.906-10.236.002-14.143-3.905-3.905-10.237-3.905-14.143-.002-4.176 4.351-11.683 4.351-15.859 0-3.907-3.905-10.237-3.903-14.143.002-3.904 3.907-3.903 10.238.002 14.143z"/><path d="m159.512 62.061c13.268-.529 13.258-19.476 0-20h-.007c-13.268.53-13.25 19.477.007 20z"/><path d="m451.268 442.107c-1.587-8.97-4.914-19.276-14.219-22.331-7.952-16.563-20.947-29.662-38.785-39.124v-238.384c0-38.097-14.123-72.388-38.235-93.944 9.138-11.391 8.039-29.392-2.534-39.55l.001-.001c-11.696-11.696-30.729-11.697-42.427 0l-1.01 1.01-1.01-1.01c-8.502-8.755-22.54-11.227-33.571-6.128-29.832-6.528-61.792-.484-88.749 13.329-4.899 2.55-6.804 8.588-4.255 13.487 2.561 4.948 8.688 6.779 13.487 4.255 19.595-10.167 41.406-14.972 63.474-13.384-3.542 10.475-1.146 22.533 7.187 30.868l1.01 1.01-1.01 1.01c-11.608 11.608-11.697 30.439-.266 42.157-24.508 18.262-57.173 31.289-89.66 35.469-16.366 2.104-27.54 12.628-30.739 28.241-6.149.936-11.728 3.631-16.209 7.554v-24.372c0-16.854 3.418-33.214 10.159-48.623 2.214-5.06-.093-10.956-5.153-13.169-5.06-2.217-10.956.092-13.169 5.153-7.854 17.952-11.837 37.008-11.837 56.639v238.386c-17.829 9.461-30.827 22.561-38.785 39.122-1.202.396-2.364.944-3.473 1.643-6.883 4.339-9.295 12.893-10.747 20.689-1.23 6.607-1.46 11.999-.702 16.483.819 4.849 2.898 8.853 5.967 11.695v31.726c0 5.522 4.478 10 10 10h359.997c5.522 0 10-4.478 10-10v-31.726c3.068-2.843 5.147-6.846 5.967-11.696.756-4.484.527-9.876-.704-16.484zm-75.266 19.543v-7.473l54.083-14.49c.429 1.204.969 3.113 1.521 6.081 1.038 5.574.856 8.359.637 9.566l-52.688 14.117c-.995-2.728-2.182-5.341-3.553-7.801zm-149.996-106.561v-41.982c21.609 8.852 38.391 8.852 60 0v41.982c0 4.294 2.741 8.108 6.811 9.478l10.788 3.631c-26.419 22.407-68.781 22.405-95.198 0l10.789-3.631c4.069-1.37 6.81-5.184 6.81-9.478zm-39.133 20.355c35.842 39.281 102.427 39.277 138.266 0l20.527 6.908c-44.323 56.674-135.008 56.663-179.32 0zm119.133-27.541v-45.258c28.671-17.599 53.718-50.355 56.414-80.261 6.005-.986 11.452-3.651 15.844-7.496v157.332zm72.258-181.263c-4.365-3.822-9.772-6.478-15.733-7.478-2.047-19.325-10.668-26.001-22.227-32.842-10.507-6.22-18.07-15.543-23.392-28.979 11.774 9.968 29.483 9.404 40.584-1.697 3.035-3.035 5.282-6.565 6.742-10.332 9.03 16.057 14.025 35.749 14.025 56.955v24.373zm-93.499-99.279 2.222-2.222c2.775 5.985 8.156 11.367 14.141 14.142l-2.221 2.221c-9.797 8.96-23.097-4.356-14.142-14.141zm22.223-22.222c6.161-6.286 17.16-1.731 17.07 7.07.111 5.376-4.624 10.111-10 10-8.801.089-13.357-10.91-7.07-17.07zm28.284 28.284c2.479-2.478 4.431-5.286 5.86-8.284l2.221 2.221c3.898 3.899 3.898 10.244-.001 14.143-3.683 3.848-10.458 3.848-14.142 0l-2.221-2.221c2.998-1.428 5.805-3.381 8.283-5.859zm1.009-53.413c2.687 0 5.198 1.032 7.071 2.905 0 .001 0 .001.001.001 3.847 3.684 3.847 10.457-.001 14.142l-2.221 2.221c-1.428-2.997-3.381-5.805-5.859-8.283s-5.286-4.431-8.283-5.859l2.222-2.222c1.873-1.873 4.384-2.905 7.07-2.905zm-44.445 0c2.687 0 5.197 1.032 7.07 2.905l2.222 2.222c-2.997 1.428-5.804 3.381-8.283 5.859-2.478 2.478-4.431 5.286-5.859 8.283l-2.222-2.221c-6.262-6.19-1.762-17.14 7.072-17.048zm-137.044 158.711h4.225c5.522 0 10-4.478 10-10 0-7.395 2.469-16.526 14.231-18.04 39.739-5.113 79.878-22.363 107.835-46.272 2.308.058 4.617-.149 6.885-.619 6.985 18.053 17.564 31.109 32.148 39.742 9.372 5.547 12.879 7.623 12.879 25.189 0 5.522 4.478 10 10 10h4.225c15.931.663 15.919 23.429 0 24.086h-4.225c-5.522 0-10 4.477-10 10-.001 28.492-19.987 50.457-31.901 61.014-17.532 15.536-39.671 25.975-55.088 25.975s-37.556-10.438-55.088-25.975c-11.914-10.557-31.9-32.521-31.901-61.014 0-5.523-4.478-10-10-10h-4.225c-15.931-.663-15.919-23.429 0-24.086zm-5.2 43.663c2.689 29.897 27.751 62.672 56.414 80.261v45.258l-72.258 24.317v-157.332c4.392 3.845 9.839 6.51 15.844 7.496zm-10.396 169.104 7.134-2.401c51.954 74.248 167.408 74.232 219.351 0l7.134 2.401c19.914 6.702 34.365 17.205 43.096 31.291l-52.498 14.066c-4.372 1.171-7.412 5.133-7.412 9.659v17.9c0 1.916.551 3.792 1.586 5.404 3.847 5.989 5.841 13.834 5.744 22.203h-214.651c-.098-8.369 1.897-16.214 5.744-22.203 1.035-1.612 1.586-3.488 1.586-5.404v-17.9c0-4.526-3.04-8.488-7.412-9.659l-52.499-14.066c8.728-14.084 23.183-24.588 43.097-31.291zm-59.427 63.845c-.22-1.206-.401-3.991.637-9.564.553-2.969 1.093-4.878 1.521-6.082l54.083 14.49v7.473c-1.371 2.461-2.558 5.072-3.553 7.802zm6.239 22.378 42.721 11.447c-.033.948-.046 1.899-.039 2.854h-42.682zm297.315 14.301c.007-.955-.006-1.906-.039-2.854l42.721-11.447v14.3h-42.682z"/></g></g></svg>